#!OML:ASF F:\VICON\USERDATA\INSTALL\rory3\rory3.ASF
:FULLY-SPECIFIED
:DEGREES
840
root 0.145342 18.1933 1.92318 -197.126 85.9665 164.594
lowerback 9.03914 0.352735 -1.25781
upperback 0.0915468 0.370111 0.32599
thorax -4.98779 0.223704 0.997856
lowerneck -19.1518 -7.52298 -13.444
upperneck 27.9534 -9.36945 10.7857
head 13.929 -3.97076 4.94745
rclavicle -8.02593e-015 5.36719e-015
rhumerus -35.3519 -11.2438 -81.5508
rradius 31.9544
rwrist 7.09424
rhand -13.534 9.33544
rfingers 7.12502
rthumb 12.5784 -20.2659
lclavicle -8.02593e-015 5.36719e-015
lhumerus -37.6025 2.94482 86.2502
lradius 35.8887
lwrist -4.07655
lhand -18.4649 25.163
lfingers 7.12502
lthumb 7.82161 54.9984
rfemur -2.45637 3.91759 18.0739
rtibia 19.7328
rfoot -12.0382 -2.44021
rtoes 6.47583
lfemur 0.820678 -2.1295 -23.912
ltibia 10.1769
lfoot -4.15359 -8.84393
ltoes 17.1718
841
root 0.150247 18.193 1.92403 -196.701 85.9958 165.024
lowerback 9.0512 0.369612 -1.34701
upperback 0.0961716 0.3862 0.384279
thorax -4.99124 0.234557 1.10661
lowerneck -19.2114 -7.53333 -13.5026
upperneck 27.9966 -9.35318 10.764
head 13.9602 -3.97138 4.95252
rclavicle 8.52289e-015 -1.98785e-015
rhumerus -35.3861 -10.8464 -81.6245
rradius 32.218
rwrist 6.67455
rhand -13.7082 8.94163
rfingers 7.12502
rthumb 12.4104 -20.67
lclavicle 8.52289e-015 -1.98785e-015
lhumerus -37.6204 3.03352 86.2998
lradius 35.9038
lwrist -4.03362
lhand -18.4822 25.1948
lfingers 7.12502
lthumb 7.80499 55.0307
rfemur -2.42962 4.05126 18.1354
rtibia 19.7274
rfoot -12.0463 -2.55481
rtoes 6.48242
lfemur 0.837829 -2.26518 -23.8886
ltibia 10.187
lfoot -4.13865 -8.70982
ltoes 17.2662
842
root 0.154063 18.1924 1.92038 -196.03 85.9512 165.727
lowerback 9.07685 0.306895 -1.3916
upperback 0.130441 0.300874 0.430786
thorax -4.9678 0.19396 1.19141
lowerneck -19.3771 -7.49905 -13.4573
upperneck 28.0879 -9.27746 10.6806
head 14.0149 -3.94017 4.92625
rclavicle 2.91965e-015 2.98177e-015
rhumerus -35.2631 -10.5335 -81.6957
rradius 32.2669
rwrist 6.45722
rhand -13.5472 9.03533
rfingers 7.12502
rthumb 12.5656 -20.5668
lclavicle 2.91965e-015 2.98177e-015
lhumerus -37.5748 3.21889 86.2717
lradius 35.9005
lwrist -3.93737
lhand -18.6524 25.2388
lfingers 7.12502
lthumb 7.64071 55.0807
rfemur -2.36732 4.12911 18.1821
rtibia 19.7096
rfoot -12.0647 -2.68507
rtoes 6.62397
lfemur 0.873711 -2.55548 -23.9012
ltibia 10.2153
lfoot -4.08728 -8.48209
ltoes 17.4005
843
root 0.157786 18.1955 1.90872 -195.679 85.8705 166.078
lowerback 9.08299 0.250212 -1.32126
upperback 0.140166 0.231957 0.411161
thorax -4.9585 0.15797 1.14046
lowerneck -19.5083 -7.4645 -13.3621
upperneck 28.2136 -9.22518 10.6041
head 14.0784 -3.91253 4.89207
rclavicle -6.41081e-015 0
rhumerus -35.1691 -10.3784 -81.7421
rradius 32.2543
rwrist 6.39645
rhand -13.5828 9.08809
rfingers 7.12502
rthumb 12.5313 -20.5161
lclavicle -6.41081e-015 0
lhumerus -37.5402 3.18114 86.2736
lradius 35.8999
lwrist -3.74013
lhand -18.8522 25.3299
lfingers 7.12502
lthumb 7.44785 55.1788
rfemur -2.30233 4.05453 18.1399
rtibia 19.6532
rfoot -12.0042 -2.66529
rtoes 5.41986
lfemur 0.836921 -2.79244 -23.9608
ltibia 10.3277
lfoot -4.05411 -8.2827
ltoes 18.082
844
root 0.161212 18.199 1.89921 -195.916 85.8401 165.848
lowerback 9.11109 0.250973 -1.29758
upperback 0.136114 0.233433 0.378765
thorax -4.97832 0.157916 1.09315
lowerneck -19.5142 -7.43043 -13.2742
upperneck 28.2272 -9.1946 10.5733
head 14.0731 -3.893 4.87081
rclavicle -6.11884e-015 -8.54774e-015
rhumerus -35.1341 -10.363 -81.7494
rradius 32.2483
rwrist 6.28472
rhand -13.722 9.19827
rfingers 7.12502
rthumb 12.3971 -20.4141
lclavicle -6.11884e-015 -8.54774e-015
lhumerus -37.5235 3.07805 86.2903
lradius 35.88
lwrist -3.72298
lhand -18.5979 25.1114
lfingers 7.12502
lthumb 7.69329 54.9514
rfemur -2.21637 4.0362 18.0764
rtibia 19.5609
rfoot -11.9262 -2.64065
rtoes 4.24633
lfemur 0.7594 -2.80952 -24.0215
ltibia 10.5136
lfoot -4.05749 -8.30411
ltoes 18.8624
845
root 0.165105 18.1993 1.89451 -196.311 85.8641 165.454
lowerback 9.12179 0.274553 -1.36589
upperback 0.128767 0.25716 0.375145
thorax -4.99303 0.171334 1.12469
lowerneck -19.4311 -7.37269 -13.303
upperneck 28.1416 -9.12524 10.6384
head 14.0129 -3.86043 4.91426
rclavicle -1.1486e-014 -1.98785e-016
rhumerus -35.1422 -10.2835 -81.7791
rradius 32.3308
rwrist 6.00599
rhand -13.9139 9.15749
rfingers 7.12502
rthumb 12.2121 -20.466
lclavicle -1.1486e-014 -1.98785e-016
lhumerus -37.5169 3.13533 86.2719
lradius 35.8222
lwrist -3.88801
lhand -18.4309 24.938
lfingers 7.12502
lthumb 7.85446 54.7721
rfemur -2.17702 4.08223 18.0401
rtibia 19.4807
rfoot -11.9658 -2.6487
rtoes 5.37779
lfemur 0.67795 -2.73465 -24.0666
ltibia 10.6849
lfoot -4.0968 -8.35672
ltoes 19.0507
846
root 0.16781 18.1988 1.88846 -196.017 85.8772 165.744
lowerback 9.13903 0.312872 -1.32511
upperback 0.12063 0.311222 0.357771
thorax -5.01252 0.196981 1.07638
lowerneck -19.3866 -7.38114 -13.3358
upperneck 28.1094 -9.14208 10.6778
head 13.9966 -3.86733 4.93235
rclavicle 1.41883e-014 1.98785e-016
rhumerus -35.2113 -10.1677 -81.8244
rradius 32.5216
rwrist 5.69275
rhand -13.9935 9.07822
rfingers 7.12502
rthumb 12.1353 -20.5498
lclavicle 1.41883e-014 1.98785e-016
lhumerus -37.5382 3.18363 86.2707
lradius 35.8491
lwrist -4.03335
lhand -18.7324 25.0721
lfingers 7.12502
lthumb 7.56349 54.9169
rfemur -2.1525 4.05965 18.0455
rtibia 19.4119
rfoot -11.9575 -2.63306
rtoes 6.6021
lfemur 0.601093 -2.89935 -24.0832
ltibia 10.858
lfoot -4.20134 -8.09821
ltoes 19.0308
